<svg width="172" height="80" viewBox="0 0 172 80" fill="none" xmlns="http://www.w3.org/2000/svg">
<path d="M45.2439 36.0158C45.2201 35.9583 45.2062 35.9022 45.1822 35.8433C43.7476 32.3261 38.2965 31.2603 32.0123 32.8674L30.9815 32.2251C34.0752 30.89 37.1563 30.193 39.7381 30.3838C43.5891 30.6755 45.4725 32.8674 45.2439 36.0158ZM39.6568 43.4036C35.6277 48.5336 28.3464 52.0845 23.3918 51.717C18.4455 51.3426 17.6952 46.8844 21.7257 41.7544C21.8056 41.6492 21.8926 41.5455 21.9768 41.4403L21.9895 47.8717C21.9628 49.5069 23.5377 50.274 24.6695 49.6247L39.483 40.5904C40.6414 39.8401 40.5194 38.1615 39.4283 37.515L33.4218 34.0581C35.0458 33.57 36.6039 33.34 37.988 33.4424C42.9385 33.8168 43.6832 38.2737 39.6569 43.4036L39.6568 43.4036ZM20.8157 54.477C16.2691 54.1348 14.4558 51.1379 15.6394 47.0569C15.6322 47.7371 15.739 48.3892 15.9914 48.995C17.7683 53.3635 25.7451 53.9553 33.8061 50.3287C33.9716 50.2543 34.1357 50.173 34.2983 50.1001C29.7728 53.0213 24.7312 54.7673 20.8157 54.477V54.477ZM26.0536 31.6389L35.998 37.9062C36.7329 38.3466 36.8213 39.4938 36.0387 40.0028L25.9933 46.1285C25.2262 46.5703 24.1506 46.0444 24.1716 44.9267L24.1239 32.7636C24.1674 31.7483 25.1715 31.1355 26.0536 31.6389H26.0536ZM49.0726 33.8954C46.9887 28.7738 38.3331 27.6463 28.9664 30.9602L24.8097 28.3559C23.5153 27.6168 22.0372 28.5172 21.9657 30.0149L21.9685 34.2446C13.8963 39.0814 9.21504 46.0444 11.2079 50.9458C13.5176 56.6072 23.8631 57.3842 34.3166 52.6749C44.7729 47.9685 51.3782 39.5597 49.0726 33.8954Z" fill="white"/>
<path d="M57.3814 41.2773L56.4783 44.6023C56.3436 45.1086 56.2398 45.57 56.1571 45.9669C56.0715 46.3848 56.0365 46.6835 56.0365 46.8686C56.0365 47.2249 56.1332 47.4969 56.331 47.7016C56.5385 47.905 56.8134 48.0046 57.1514 48.0046C57.6815 48.0046 58.2326 47.7059 58.8034 47.1084C59.3714 46.5096 59.9155 45.6541 60.447 44.5322C61.0823 43.0976 61.6012 41.6853 62.0009 40.2717C62.3865 38.8749 62.5899 37.7755 62.5899 36.9929C62.5899 36.425 62.4721 35.9664 62.2435 35.6256C62.0135 35.2806 61.719 35.1039 61.374 35.1039C60.5872 35.1039 59.8706 35.613 59.2129 36.6143C58.5552 37.6268 57.9451 39.1765 57.3813 41.2773H57.3814ZM51.7072 33.5528C53.111 33.4421 54.4405 33.2948 55.7167 33.1307C56.9873 32.9666 58.2116 32.7759 59.3938 32.5445L58.3995 36.1094C59.3924 34.7309 60.339 33.7183 61.2464 33.0957C62.1369 32.452 63.0625 32.1462 64.0357 32.1462C65.3596 32.1462 66.3876 32.5642 67.1014 33.3972C67.8264 34.2386 68.1812 35.4335 68.1812 36.9789C68.1812 38.2831 67.9386 39.6603 67.4436 41.0977C66.9457 42.538 66.2459 43.8759 65.3722 45.1184C64.3443 46.5629 63.2602 47.6455 62.1004 48.3622C60.935 49.0844 59.7079 49.449 58.3995 49.449C57.8624 49.449 57.3617 49.3747 56.8863 49.2134C56.4207 49.0465 55.9986 48.8207 55.6157 48.515L54.5976 52.38C54.5275 52.6114 54.4728 52.8597 54.4461 53.1023C54.4068 53.3393 54.397 53.5791 54.397 53.8189C54.397 54.2831 54.5302 54.6197 54.8051 54.8076C55.0814 54.9941 55.6396 55.1091 56.4782 55.1624V56.0655H46.9868V55.1231C47.019 55.1231 47.0653 55.1188 47.1256 55.1076C47.1887 55.0921 47.2377 55.0865 47.2616 55.0865C47.852 55.0865 48.291 54.9351 48.5855 54.6252C48.8828 54.3166 49.1843 53.513 49.5026 52.2032L53.2807 36.8147C53.3466 36.5693 53.3971 36.3182 53.4378 36.0798C53.4755 35.8498 53.4981 35.6605 53.4981 35.5343C53.4981 35.1108 53.3705 34.8275 53.1236 34.6718C52.8684 34.4979 52.3958 34.4194 51.7072 34.4194L51.7072 33.5528Z" fill="white"/>
<path d="M69.1228 25.0646C70.542 24.9496 71.8967 24.7954 73.2136 24.6074C74.5206 24.4209 75.7632 24.2049 76.9285 23.9399L71.7158 44.5734C71.682 44.687 71.6429 44.823 71.598 45.0025C71.5293 45.269 71.5041 45.4401 71.5041 45.5312C71.5041 45.7738 71.5489 45.9674 71.6443 46.1006C71.7453 46.2395 71.8869 46.3068 72.0706 46.3068C72.2586 46.3068 72.4703 46.1777 72.7143 45.9127C72.9556 45.6533 73.424 44.9703 74.121 43.8638L74.9526 44.4949C73.9064 46.2465 72.8981 47.5198 71.95 48.308C71.002 49.0947 70.0175 49.486 68.9882 49.486C68.0808 49.486 67.3712 49.235 66.8818 48.7231C66.3867 48.2112 66.1441 47.4736 66.1441 46.5213C66.1441 46.0529 66.3979 44.8104 66.8986 42.7966L66.9491 42.5932L70.4088 29.1638C70.4398 29.0404 70.4831 28.8567 70.5392 28.6155C70.7594 27.732 70.8562 27.1626 70.8562 26.9172C70.8562 26.5792 70.7426 26.3338 70.507 26.1697C70.277 26.0113 69.918 25.9257 69.4201 25.9257H69.1228L69.1228 25.0646Z" fill="white"/>
<path d="M85.4422 35.7503C85.4422 35.2567 85.3384 34.8654 85.1225 34.5709C84.9065 34.2792 84.6274 34.1347 84.2782 34.1347C83.7818 34.1347 83.3049 34.376 82.8422 34.8668C82.3794 35.3632 81.8493 36.1822 81.242 37.3294C80.5324 38.6967 79.9757 40.029 79.576 41.3431C79.1651 42.6683 78.9617 43.7889 78.9617 44.7187C78.9617 45.2838 79.0753 45.72 79.2997 46.0509C79.5255 46.3623 79.8354 46.5207 80.2127 46.5207C80.7722 46.5207 81.343 46.1884 81.9348 45.5082C82.5252 44.8322 83.0834 43.8786 83.6121 42.6515C84.1674 41.2842 84.605 39.9505 84.9402 38.6799C85.2725 37.3995 85.4422 36.4249 85.4422 35.7503H85.4422ZM91.7306 32.7225L88.9496 42.9292V42.9658C88.5261 44.5379 88.3129 45.4522 88.3129 45.7145C88.3129 45.9571 88.355 46.1506 88.4532 46.3021C88.5443 46.4549 88.6635 46.5208 88.8234 46.5208C89.2736 46.5208 89.8612 45.9795 90.5666 44.8926C90.7797 44.5827 90.9438 44.3373 91.056 44.1662L91.8638 44.8029C90.9564 46.396 90.0519 47.574 89.1291 48.3243C88.2063 49.0774 87.2092 49.449 86.1476 49.449C85.2627 49.449 84.5867 49.2527 84.131 48.8642C83.6612 48.4618 83.4326 47.8896 83.4326 47.1253C83.4326 46.8981 83.4493 46.605 83.4985 46.2614C83.5391 45.9122 83.6121 45.4606 83.7089 44.9095C82.8688 46.4451 81.953 47.5881 80.9644 48.3257C79.9799 49.0774 78.879 49.449 77.6659 49.449C76.4122 49.449 75.4263 49.0592 74.7012 48.2766C73.9734 47.4857 73.6102 46.4128 73.6102 45.0469C73.6102 43.4748 73.9538 41.82 74.6592 40.0698C75.3548 38.342 76.2902 36.7952 77.4696 35.4671C78.3994 34.3999 79.3614 33.5795 80.3627 33.0045C81.3711 32.4295 82.3345 32.1462 83.2615 32.1462C84.1478 32.1462 84.835 32.3622 85.3469 32.7899C85.8573 33.2247 86.1925 33.8852 86.3538 34.7645L86.8657 32.7226L91.7306 32.7225Z" fill="white"/>
<path d="M90.11 34.1343V33.1919C91.4647 33.0405 92.8362 32.8526 94.2344 32.6422C95.6214 32.4304 96.3773 32.3281 96.4825 32.3281C97.0406 32.3281 97.7713 34.7837 98.6562 39.7033C99.0152 41.661 99.3097 43.2387 99.5411 44.4195C100.596 42.2809 101.317 40.72 101.706 39.744C102.095 38.7735 102.286 38.0513 102.286 37.5899C102.286 37.2322 101.96 36.7975 101.312 36.3025C100.666 35.8018 100.335 35.2268 100.335 34.5915C100.335 33.8553 100.559 33.2621 101.016 32.8119C101.464 32.3687 102.063 32.1458 102.81 32.1458C103.549 32.1458 104.133 32.3687 104.55 32.8119C104.961 33.2621 105.175 33.8917 105.175 34.6925C105.175 35.6994 104.691 37.322 103.733 39.5532C102.772 41.7802 101.46 44.2877 99.7977 47.0925C97.9171 50.29 96.2006 52.611 94.6607 54.0807C93.1195 55.549 91.6358 56.2796 90.2095 56.2796C89.2615 56.2796 88.5196 56.0693 87.9769 55.6472C87.437 55.2222 87.1649 54.6416 87.1649 53.9012C87.1649 53.228 87.3963 52.6825 87.8689 52.2393C88.3359 51.8004 88.9277 51.583 89.6486 51.583C90.2123 51.583 90.8182 51.8088 91.4647 52.2534C92.1084 52.7049 92.5473 52.9181 92.7605 52.9181C93.149 52.9181 93.5865 52.5927 94.0816 51.9434C94.5906 51.2857 94.8445 50.6686 94.8445 50.0698C94.8445 49.6337 94.8038 49.0769 94.7267 48.4094C94.6509 47.7348 94.5289 46.9116 94.3719 45.9341C94.0437 43.8375 93.7113 41.9233 93.3804 40.2053C93.041 38.4902 92.7395 37.1355 92.4688 36.1454C92.2304 35.2955 91.9906 34.743 91.748 34.4821C91.5054 34.2241 91.1127 34.0965 90.5517 34.0965H90.5082C90.3456 34.1188 90.2207 34.1343 90.11 34.1343" fill="white"/>
<path d="M111.797 44.8343C110.75 46.3111 109.72 47.4442 108.718 48.2267C107.725 49.0177 106.818 49.4104 105.993 49.4104C105.328 49.4104 104.809 49.1902 104.426 48.7653C104.044 48.3305 103.849 47.7485 103.849 47.0193C103.849 46.7626 103.875 46.4779 103.926 46.1582C103.972 45.8356 104.046 45.478 104.146 45.1008L107.136 33.4104H103.987L104.281 32.4049C105.634 32.109 106.83 31.4639 107.875 30.4654C108.914 29.4626 109.858 28.0785 110.687 26.3058H111.761L110.356 32.1749H113.232L112.942 33.4104H109.977L107.106 44.7025C107.04 44.9592 106.99 45.1835 106.955 45.3953C106.931 45.6015 106.909 45.7908 106.909 45.9507C106.909 46.3265 106.99 46.6098 107.16 46.8117C107.315 47.0123 107.552 47.109 107.84 47.109C108.216 47.109 108.657 46.8903 109.181 46.4317C109.702 45.9829 110.363 45.2452 111.155 44.2285L111.797 44.8343Z" fill="white"/>
<path d="M114.734 40.9855C117.048 40.8747 118.999 40.2408 120.562 39.0978C122.139 37.9367 122.916 36.6338 122.916 35.1557C122.916 34.6607 122.791 34.289 122.54 34.0394C122.297 33.7996 121.92 33.6762 121.414 33.6762C120.011 33.6762 118.708 34.3115 117.516 35.6073C116.323 36.9115 115.399 38.701 114.734 40.9855H114.734ZM114.46 42.2238C114.353 42.6431 114.284 43.0484 114.235 43.4341C114.177 43.8085 114.162 44.1605 114.162 44.4788C114.162 45.4577 114.399 46.2052 114.887 46.7199C115.366 47.236 116.075 47.6174 116.997 47.6174C117.906 47.6174 118.951 47.1855 120.101 46.5614C121.265 45.9416 122.573 45.0019 124.015 43.7468L124.777 44.8996C123.056 46.4506 121.436 47.5978 119.913 48.3298C118.396 49.0773 116.909 49.4419 115.449 49.4419C114.02 49.4419 112.898 49.0086 112.111 48.1574C111.318 47.2949 110.924 46.0874 110.924 44.5125C110.924 43.0077 111.232 41.4763 111.849 39.9253C112.466 38.3798 113.311 36.9928 114.376 35.7924C115.41 34.641 116.547 33.7673 117.772 33.1559C119.014 32.5514 120.28 32.2387 121.585 32.2387C122.787 32.2387 123.728 32.5206 124.423 33.0788C125.117 33.6327 125.468 34.397 125.468 35.3703C125.468 37.1219 124.447 38.6435 122.425 39.9225C120.398 41.1986 117.743 41.9601 114.46 42.2238Z" fill="white"/>
<path d="M137.07 42.464L137.025 44.677C135.935 46.2715 134.754 47.4607 133.468 48.2545C132.182 49.0413 130.779 49.4325 129.258 49.4325C127.594 49.4325 126.233 48.8758 125.189 47.7482C124.148 46.6389 123.629 45.1608 123.629 43.3251C123.629 41.976 123.924 40.6002 124.513 39.1964C125.095 37.787 125.914 36.5361 126.958 35.424C127.913 34.4184 128.985 33.6331 130.173 33.0946C131.349 32.5462 132.553 32.2643 133.792 32.2643C135.092 32.2643 136.125 32.5673 136.894 33.1605C137.663 33.7551 138.049 34.5446 138.049 35.5403C138.049 36.1308 137.852 36.6426 137.448 37.0634C137.05 37.4883 136.579 37.6958 136.028 37.6958C135.578 37.6958 135.214 37.5542 134.935 37.2555C134.658 36.961 134.519 36.5795 134.519 36.1027C134.519 35.7703 134.627 35.3903 134.855 34.9471C135.076 34.511 135.182 34.2389 135.182 34.1295C135.182 33.9248 135.074 33.7607 134.843 33.6331C134.613 33.5055 134.31 33.4424 133.916 33.4424C133.115 33.4424 132.304 33.6864 131.469 34.1912C130.64 34.7045 129.915 35.3945 129.292 36.271C128.533 37.334 127.947 38.4658 127.536 39.6606C127.131 40.8526 126.93 42.011 126.93 43.1582C126.93 44.454 127.256 45.4904 127.914 46.2463C128.578 47.0036 129.47 47.5168 130.599 47.5168C131.49 47.5168 132.365 47.1003 133.224 46.545C134.09 45.9798 135.522 44.8551 137.07 42.464" fill="white"/>
<path d="M135.108 49.4521L140.997 28.1174C141.032 27.987 141.053 27.8552 141.068 27.7121C141.091 27.5817 141.097 27.4457 141.097 27.3363C141.097 26.9563 141 26.6954 140.816 26.5481C140.63 26.4177 140.095 26.3462 139.223 26.3462H137.882L138.09 25.3729C139.171 25.3294 140.181 25.2018 141.122 25.0181C142.053 24.8218 142.945 24.5694 143.771 24.2398H144.835L140.76 38.9762C142.847 36.8488 144.769 35.2024 146.518 34.0159C148.263 32.8505 149.657 32.2587 150.696 32.2587C151.244 32.2587 151.641 32.3892 151.905 32.65C152.161 32.9192 152.3 33.3273 152.3 33.8757C152.3 34.0468 152.272 34.2501 152.222 34.4955C152.175 34.7494 152.112 35.027 152.037 35.3258L149.062 45.3641C149.01 45.5563 148.961 45.7736 148.923 46.0064C148.883 46.2308 148.862 46.4636 148.862 46.688C148.862 46.817 148.923 46.9292 149.03 47.033C149.136 47.1312 149.267 47.3064 149.407 47.3064C149.697 47.3064 150.106 46.9867 150.615 46.5912C151.128 46.1957 151.666 45.6544 152.236 44.97L152.842 45.4903C151.818 46.7609 150.831 47.7398 149.884 48.4059C148.933 49.0791 148.055 49.4184 147.256 49.4184C146.733 49.4184 146.32 49.2895 146.019 49.037C145.712 48.7789 145.566 48.4367 145.566 47.9894C145.566 47.8323 145.579 47.6626 145.614 47.4817C145.645 47.3022 145.703 47.1073 145.775 46.8927L148.831 36.5107C148.887 36.2836 148.923 36.1097 148.943 35.9919C148.961 35.8782 148.967 35.7647 148.967 35.6693C148.967 35.4042 148.895 35.2023 148.741 35.0593C148.595 34.9274 148.382 34.8587 148.101 34.8587C147.667 34.8587 147.024 35.1294 146.179 35.6791C145.326 36.2274 144.354 37.0114 143.235 38.0253C142.235 38.9229 141.496 39.6872 141.032 40.3196C140.568 40.9535 140.228 41.6099 140.018 42.2914L137.992 49.4521C137.76 49.4171 136.941 49.3904 136.703 49.3749C136.466 49.3582 136.812 49.3582 136.567 49.3582C136.319 49.3582 136.07 49.3582 135.83 49.3749C135.598 49.3904 135.356 49.417 135.108 49.4521" fill="white"/>
<path d="M100.134 55.3207V55.5984C100.132 55.7414 100.148 55.8718 100.187 55.9966C100.271 56.3332 100.545 56.5015 101.012 56.5015C101.185 56.5015 101.343 56.4777 101.484 56.4286C101.803 56.3318 101.964 56.092 101.974 55.7176C101.971 55.4609 101.867 55.2604 101.66 55.1202C101.511 55.0234 101.336 54.9294 101.132 54.8327L100.517 54.5536C100.273 54.4456 100.069 54.3348 99.9079 54.2198C99.5685 53.9828 99.3974 53.6449 99.3974 53.2017C99.4018 52.7165 99.5938 52.3743 99.9682 52.1709C100.249 52.0181 100.63 51.9395 101.12 51.9353C101.714 51.9353 102.145 52.0475 102.407 52.2733C102.616 52.4542 102.721 52.8104 102.721 53.3405V53.4401H101.875V53.3209L101.859 53.0628C101.807 52.6758 101.556 52.4865 101.107 52.4963C100.538 52.4963 100.25 52.7249 100.243 53.1806C100.243 53.471 100.423 53.708 100.778 53.8903C101.001 54.0067 101.249 54.1203 101.526 54.2381C101.807 54.3531 102.034 54.4639 102.208 54.569C102.616 54.8186 102.821 55.1917 102.821 55.6951C102.812 56.6025 102.211 57.0597 101.013 57.0597C100.5 57.0668 100.104 56.9797 99.8281 56.8058C99.5042 56.5983 99.3289 56.3066 99.3008 55.9195L99.2897 55.5198V55.3207L100.134 55.3207Z" fill="white"/>
<path d="M103.386 53.6148C103.389 53.2053 103.428 52.9066 103.5 52.7158C103.615 52.4157 103.863 52.1997 104.247 52.0749C104.525 51.981 104.823 51.9347 105.145 51.9347C105.46 51.9347 105.759 51.981 106.041 52.0749C106.419 52.1998 106.666 52.4157 106.783 52.7158C106.854 52.9024 106.895 53.2053 106.9 53.6148V55.285C106.9 55.5852 106.884 55.8474 106.85 56.0648C106.756 56.7225 106.195 57.0563 105.168 57.0591C104.424 57.0591 103.925 56.9062 103.671 56.5963C103.477 56.3649 103.382 55.9259 103.386 55.285L103.386 53.6148ZM104.233 55.2794C104.236 55.6987 104.267 55.9736 104.324 56.0956C104.382 56.219 104.492 56.32 104.65 56.3929C104.811 56.4644 104.975 56.5009 105.145 56.5009C105.297 56.5009 105.446 56.4727 105.586 56.4097C105.856 56.3032 106.003 56.1124 106.03 55.839C106.043 55.6833 106.051 55.4982 106.053 55.2794V53.6106C106.059 53.2487 106.017 52.9935 105.933 52.8477C105.8 52.612 105.534 52.4929 105.145 52.4956C104.992 52.4956 104.85 52.5179 104.717 52.57C104.441 52.664 104.286 52.8589 104.254 53.1492C104.236 53.281 104.23 53.4353 104.233 53.6106V55.2794Z" fill="white"/>
<path d="M107.666 52.0067H108.51V55.3317L108.519 55.7707C108.548 56.2545 108.83 56.4985 109.363 56.5013C109.897 56.5013 110.19 56.2741 110.241 55.817C110.26 55.6571 110.27 55.4958 110.273 55.3317V52.0067H111.119V55.385C111.116 55.6613 111.106 55.8745 111.089 56.0273C111.063 56.2587 110.97 56.4523 110.807 56.6079C110.499 56.9094 110.026 57.0567 109.39 57.0595C108.729 57.0567 108.252 56.9109 107.962 56.6163C107.799 56.4481 107.708 56.2531 107.687 56.0273C107.673 55.8927 107.666 55.6809 107.666 55.385L107.666 52.0067Z" fill="white"/>
<path d="M113.323 52.0067H113.828C114.023 52.0067 114.202 52.0249 114.365 52.0515C114.989 52.1511 115.305 52.548 115.314 53.2478C115.314 53.6152 115.232 53.8901 115.068 54.085C114.908 54.2659 114.595 54.3879 114.136 54.4538V54.451C114.422 54.4793 114.629 54.5226 114.755 54.5815C114.936 54.6712 115.049 54.8171 115.094 55.0148C115.124 55.1452 115.14 55.3009 115.149 55.4762L115.185 56.0624C115.199 56.2854 115.223 56.4607 115.256 56.5883C115.274 56.6795 115.315 56.8127 115.38 56.988H114.5L114.414 56.6696C114.39 56.5799 114.375 56.4649 114.368 56.3261L114.334 55.8787L114.306 55.4117C114.267 55.0555 114.094 54.8395 113.79 54.7694C113.662 54.7428 113.509 54.7287 113.348 54.7287H112.763V56.988H111.915V52.0067L113.323 52.0067ZM112.763 52.5676V54.1663H113.368C113.549 54.1663 113.7 54.1552 113.836 54.1353C114.094 54.0947 114.274 53.9909 114.373 53.8226C114.438 53.7118 114.469 53.5281 114.469 53.2701C114.469 52.9938 114.375 52.8003 114.185 52.6937C114.048 52.6123 113.794 52.5703 113.416 52.5675L112.763 52.5676Z" fill="white"/>
<path d="M118.496 53.3203L118.492 53.0889C118.471 52.6906 118.235 52.4929 117.781 52.4957C117.377 52.4971 117.115 52.6023 116.993 52.8098C116.926 52.9094 116.889 53.0132 116.882 53.1155L116.875 53.525V55.4912C116.878 55.8474 116.913 56.0774 116.977 56.1784C117.118 56.393 117.359 56.5009 117.702 56.5009C118.15 56.4981 118.405 56.2863 118.461 55.8642L118.496 55.5431V55.372H119.342V55.5459L119.335 55.8572C119.306 56.2289 119.182 56.5135 118.952 56.7127C118.813 56.8347 118.647 56.9188 118.459 56.9679C118.235 57.0296 117.992 57.0591 117.727 57.0591C117.5 57.0635 117.287 57.0424 117.078 57.0002C116.381 56.8697 116.032 56.4055 116.028 55.6034V53.619C116.026 53.4016 116.038 53.2025 116.068 53.0159C116.099 52.7888 116.175 52.598 116.296 52.4494C116.565 52.1128 117.049 51.9403 117.746 51.9347C118.72 51.9403 119.246 52.2502 119.32 52.8617C119.334 52.9795 119.342 53.1099 119.342 53.2544V53.4479H118.496L118.496 53.3203Z" fill="white"/>
<path d="M120.08 52.0067H122.847V52.5676H120.925V54.1467H122.727V54.7077H120.925V56.4256H122.9V56.988H120.08V52.0067Z" fill="white"/>
<path d="M125.093 53.6148C125.095 53.2053 125.131 52.9066 125.205 52.7158C125.318 52.4157 125.567 52.1997 125.952 52.0749C126.229 51.981 126.528 51.9347 126.849 51.9347C127.165 51.9347 127.465 51.981 127.748 52.0749C128.124 52.1998 128.372 52.4157 128.49 52.7158C128.561 52.9024 128.601 53.2053 128.606 53.6148V55.285C128.606 55.5852 128.59 55.8474 128.559 56.0648C128.459 56.7225 127.902 57.0563 126.873 57.0591C126.127 57.0591 125.628 56.9062 125.377 56.5963C125.183 56.3649 125.089 55.9259 125.093 55.285V53.6148ZM125.938 55.2794C125.942 55.6987 125.972 55.9736 126.031 56.0956C126.089 56.219 126.197 56.32 126.355 56.3929C126.515 56.4644 126.681 56.5009 126.849 56.5009C127.005 56.5009 127.151 56.4727 127.294 56.4097C127.559 56.3032 127.706 56.1124 127.733 55.839C127.748 55.6833 127.756 55.4982 127.758 55.2794V53.6106C127.764 53.2487 127.723 52.9935 127.639 52.8477C127.504 52.612 127.239 52.4929 126.849 52.4956C126.696 52.4956 126.556 52.5179 126.423 52.57C126.147 52.664 125.992 52.8589 125.962 53.1492C125.942 53.281 125.935 53.4353 125.938 53.6106L125.938 55.2794Z" fill="white"/>
<path d="M132.073 52.0067V52.5676H130.224V54.1425H132.003V54.7021H130.224V56.988H129.377V52.0067H132.073Z" fill="white"/>
<path d="M134.887 55.3207V55.5984C134.883 55.7414 134.898 55.8718 134.938 55.9966C135.022 56.3332 135.298 56.5015 135.761 56.5015C135.935 56.5015 136.093 56.4777 136.236 56.4286C136.552 56.3318 136.714 56.092 136.726 55.7176C136.723 55.4609 136.62 55.2604 136.412 55.1202C136.263 55.0234 136.086 54.9294 135.883 54.8327L135.267 54.5536C135.025 54.4456 134.821 54.3348 134.656 54.2198C134.321 53.9828 134.149 53.6449 134.149 53.2017C134.157 52.7165 134.344 52.3743 134.722 52.1709C134.999 52.0181 135.384 51.9395 135.87 51.9353C136.465 51.9353 136.894 52.0475 137.16 52.2733C137.369 52.4542 137.472 52.8104 137.472 53.3405V53.4401H136.628V53.3209L136.611 53.0628C136.558 52.6758 136.308 52.4865 135.858 52.4963C135.286 52.4963 135.002 52.7249 134.994 53.1806C134.994 53.471 135.175 53.708 135.53 53.8903C135.75 54.0067 136.001 54.1203 136.278 54.2381C136.558 54.3531 136.786 54.4639 136.961 54.569C137.367 54.8186 137.573 55.1917 137.573 55.6951C137.563 56.6025 136.961 57.0597 135.765 57.0597C135.251 57.0668 134.855 56.9797 134.58 56.8058C134.255 56.5983 134.08 56.3066 134.054 55.9195L134.04 55.5198V55.3207L134.887 55.3207Z" fill="white"/>
<path d="M138.169 52.0067H139.013V55.3317L139.02 55.7707C139.05 56.2545 139.334 56.4985 139.864 56.5013C140.399 56.5013 140.692 56.2741 140.744 55.817C140.76 55.6571 140.77 55.4958 140.773 55.3317V52.0067H141.62V55.385C141.617 55.6613 141.607 55.8745 141.588 56.0273C141.566 56.2587 141.472 56.4523 141.31 56.6079C140.999 56.9094 140.525 57.0567 139.891 57.0595C139.23 57.0567 138.752 56.9109 138.461 56.6163C138.301 56.4481 138.21 56.2531 138.188 56.0273C138.176 55.8927 138.169 55.6809 138.169 55.385L138.169 52.0067Z" fill="white"/>
<path d="M144.915 53.3203L144.91 53.0889C144.891 52.6906 144.651 52.4929 144.196 52.4957C143.794 52.4971 143.533 52.6023 143.41 52.8098C143.344 52.9094 143.307 53.0132 143.299 53.1155L143.292 53.525V55.4912C143.296 55.8474 143.329 56.0774 143.398 56.1784C143.534 56.393 143.777 56.5009 144.119 56.5009C144.568 56.4981 144.822 56.2863 144.881 55.8642L144.914 55.5431V55.372H145.76V55.5459L145.752 55.8572C145.728 56.2289 145.597 56.5135 145.369 56.7127C145.228 56.8347 145.064 56.9188 144.877 56.9679C144.651 57.0296 144.408 57.0591 144.146 57.0591C143.917 57.0635 143.701 57.0424 143.497 57.0002C142.8 56.8697 142.45 56.4055 142.449 55.6034V53.619C142.445 53.4016 142.457 53.2025 142.487 53.0159C142.515 52.7888 142.589 52.598 142.713 52.4494C142.983 52.1128 143.466 51.9403 144.164 51.9347C145.14 51.9403 145.666 52.2502 145.739 52.8617C145.752 52.9795 145.76 53.1099 145.76 53.2544V53.4479H144.914L144.915 53.3203Z" fill="white"/>
<path d="M148.998 53.3203L148.994 53.0889C148.973 52.6906 148.739 52.4929 148.281 52.4957C147.877 52.4971 147.617 52.6023 147.493 52.8098C147.426 52.9094 147.389 53.0132 147.385 53.1155L147.375 53.525V55.4912C147.378 55.8474 147.415 56.0774 147.479 56.1784C147.619 56.393 147.861 56.5009 148.203 56.5009C148.653 56.4981 148.905 56.2863 148.963 55.8642L148.998 55.5431V55.372H149.843V55.5459L149.836 55.8572C149.808 56.2289 149.681 56.5135 149.453 56.7127C149.315 56.8347 149.149 56.9188 148.96 56.9679C148.738 57.0296 148.491 57.0591 148.228 57.0591C148.002 57.0635 147.785 57.0424 147.58 57.0002C146.883 56.8697 146.534 56.4055 146.529 55.6034V53.619C146.525 53.4016 146.541 53.2025 146.57 53.0159C146.599 52.7888 146.672 52.598 146.794 52.4494C147.065 52.1128 147.55 51.9403 148.247 51.9347C149.223 51.9403 149.748 52.2502 149.822 52.8617C149.836 52.9795 149.843 53.1099 149.843 53.2544V53.4479H148.998L148.998 53.3203Z" fill="white"/>
<path d="M150.581 52.0067H153.346V52.5676H151.426V54.1467H153.227V54.7077H151.426V56.4256H153.401V56.988H150.581V52.0067Z" fill="white"/>
<path d="M154.643 55.3207V55.5984C154.64 55.7414 154.657 55.8718 154.696 55.9966C154.781 56.3332 155.054 56.5015 155.518 56.5015C155.692 56.5015 155.852 56.4777 155.994 56.4286C156.309 56.3318 156.473 56.092 156.486 55.7176C156.48 55.4609 156.376 55.2604 156.169 55.1202C156.02 55.0234 155.844 54.9294 155.64 54.8327L155.026 54.5536C154.782 54.4456 154.579 54.3348 154.416 54.2198C154.079 53.9828 153.908 53.6449 153.908 53.2017C153.914 52.7165 154.102 52.3743 154.479 52.1709C154.757 52.0181 155.14 51.9395 155.629 51.9353C156.224 51.9353 156.653 52.0475 156.919 52.2733C157.127 52.4542 157.231 52.8104 157.231 53.3405V53.4401H156.385V53.3209L156.368 53.0628C156.316 52.6758 156.064 52.4865 155.615 52.4963C155.047 52.4963 154.758 52.7249 154.753 53.1806C154.753 53.471 154.932 53.708 155.286 53.8903C155.507 54.0067 155.758 54.1203 156.037 54.2381C156.316 54.3531 156.542 54.4639 156.719 54.569C157.124 54.8186 157.332 55.1917 157.332 55.6951C157.322 56.6025 156.722 57.0597 155.523 57.0597C155.006 57.0668 154.614 56.9797 154.339 56.8058C154.012 56.5983 153.837 56.3066 153.813 55.9195L153.798 55.5198V55.3207L154.643 55.3207Z" fill="white"/>
<path d="M158.564 55.3207V55.5984C158.56 55.7414 158.577 55.8718 158.615 55.9966C158.699 56.3332 158.975 56.5015 159.438 56.5015C159.613 56.5015 159.77 56.4777 159.911 56.4286C160.229 56.3318 160.392 56.092 160.404 55.7176C160.4 55.4609 160.295 55.2604 160.087 55.1202C159.94 55.0234 159.762 54.9294 159.559 54.8327L158.946 54.5536C158.702 54.4456 158.498 54.3348 158.336 54.2198C157.996 53.9828 157.827 53.6449 157.827 53.2017C157.832 52.7165 158.023 52.3743 158.397 52.1709C158.676 52.0181 159.058 51.9395 159.549 51.9353C160.145 51.9353 160.571 52.0475 160.836 52.2733C161.045 52.4542 161.152 52.8104 161.152 53.3405V53.4401H160.306V53.3209L160.287 53.0628C160.236 52.6758 159.984 52.4865 159.533 52.4963C158.967 52.4963 158.678 52.7249 158.672 53.1806C158.672 53.471 158.849 53.708 159.208 53.8903C159.427 54.0067 159.678 54.1203 159.956 54.2381C160.236 54.3531 160.462 54.4639 160.636 54.569C161.044 54.8186 161.25 55.1917 161.25 55.6951C161.24 56.6025 160.639 57.0597 159.442 57.0597C158.929 57.0668 158.535 56.9797 158.259 56.8058C157.931 56.5983 157.757 56.3066 157.731 55.9195L157.716 55.5198V55.3207L158.564 55.3207Z" fill="white"/>
</svg>
