<svg width="48" height="38" viewBox="0 0 48 38" fill="none" xmlns="http://www.w3.org/2000/svg">
<g clip-path="url(#clip0_109_11849)">
<g clip-path="url(#clip1_109_11849)">
<path d="M2.86179 -3.94611e-06L45.1382 -2.50185e-07C47.8699 -1.13721e-08 48 4 48 4L-3.49691e-07 4C-3.49691e-07 4 0 -4.19629e-06 2.86179 -3.94611e-06Z" fill="#A1A2E5"/>
<path d="M25.9947 36.3556L39.0931 27.4622C40.9269 26.1733 42.1058 23.9822 42.1058 21.7911L42.1058 3.60889C42.1058 3.60889 42.1058 -2.66488e-07 44.9874 -1.45649e-08C47.3452 1.91554e-07 23.8989 -1.85818e-06 23.8989 -1.85818e-06C23.8989 -1.85818e-06 -0.464218 -3.98808e-06 2.8104 -3.7018e-06C5.69206 -3.44988e-06 5.69206 3.60889 5.69206 3.60889L5.69206 21.6622C5.69206 23.9822 6.87092 26.0444 8.70471 27.3333L21.8032 36.3556C22.982 37.2578 24.6848 37.2578 25.9947 36.3556Z" fill="url(#paint0_linear_109_11849)"/>
<path fill-rule="evenodd" clip-rule="evenodd" d="M12.8626 22.7375H11.6006C11.7268 23.35 11.7899 23.84 11.9161 24.3912C12.1685 25.4937 12.484 26.4125 12.8626 27.025C13.2412 27.6375 13.746 28.25 14.5032 28.25H17.6583C18.2262 28.25 18.6679 27.9438 18.9834 27.515C19.2358 27.2087 19.4251 26.8412 19.6144 26.4125H27.6283C27.8175 26.8412 28.07 27.2087 28.2592 27.515C28.5747 27.8825 29.0164 28.25 29.5844 28.25H32.7395C33.4967 28.25 34.0645 27.6375 34.38 27.025C34.7586 26.3512 35.0742 25.4325 35.3266 24.3912C35.4528 23.9012 35.5789 23.35 35.642 22.7375H34.38C34.3169 23.2275 34.1907 23.6562 34.1276 24.085C33.8753 25.1262 33.5596 25.9225 33.3073 26.4125C32.9918 26.9638 32.7395 27.025 32.7395 27.025H31.288C31.6666 26.3512 31.9821 25.4325 32.2346 24.3912C32.3609 23.9012 32.487 23.35 32.5501 22.7375H31.288C31.2249 23.2275 31.0988 23.6562 31.0357 24.085C30.9094 24.5137 30.8463 24.8813 30.7202 25.1875H16.6486C16.5225 24.8813 16.4593 24.5137 16.3332 24.085C16.207 23.6562 16.1439 23.2275 16.0177 22.7375H14.7556C14.8818 23.35 14.9449 23.84 15.0711 24.3912C15.3235 25.4937 15.639 26.4125 16.0177 27.025H14.5663C14.5663 27.025 14.3139 26.9638 13.9984 26.4125C13.6829 25.9225 13.4305 25.1262 13.1781 24.085C13.0519 23.6562 12.9888 23.2275 12.8626 22.7375ZM14.7556 9.2625H16.0177C16.1439 8.7725 16.207 8.34375 16.3332 7.915C16.3963 7.48625 16.5225 7.11875 16.6486 6.8125H30.7833C30.9094 7.11875 30.9726 7.48625 31.0988 7.915C31.2249 8.34375 31.288 8.7725 31.3512 9.2625H32.6132C32.487 8.65 32.4238 8.16 32.2977 7.60875C32.0452 6.50625 31.7298 5.5875 31.3512 4.975H32.8656C32.8656 4.975 33.1181 5.03625 33.4335 5.5875C33.749 6.0775 34.0014 6.87375 34.2539 7.915C34.38 8.34375 34.4431 8.7725 34.5062 9.2625H35.7683C35.642 8.65 35.5789 8.16 35.4528 7.60875C35.2003 6.50625 34.8848 5.5875 34.5062 4.975C34.1276 4.3625 33.6228 3.75 32.8656 3.75H29.7105C29.1427 3.75 28.7009 4.05625 28.3855 4.485C28.133 4.79125 27.9437 5.15875 27.7544 5.5875H19.6775C19.4882 5.15875 19.2989 4.79125 19.0465 4.485C18.731 4.05625 18.2893 3.75 17.7214 3.75H14.5663C13.8091 3.75 13.2412 4.3625 12.9257 4.975C12.5471 5.64875 12.2316 6.5675 11.9161 7.60875C11.853 8.16 11.7268 8.65 11.6006 9.2625H12.8626C12.9888 8.7725 13.0519 8.34375 13.1781 7.915C13.4305 6.87375 13.746 6.0775 13.9984 5.5875C14.3139 5.03625 14.5663 4.975 14.5663 4.975H16.0807C15.7021 5.64875 15.3866 6.5675 15.0711 7.60875C15.008 8.16 14.8818 8.65 14.7556 9.2625ZM17.7214 4.975C17.7214 4.975 17.8476 4.975 18.0369 5.22C18.1 5.3425 18.2262 5.465 18.2893 5.5875H17.1535C17.469 5.03625 17.7214 4.975 17.7214 4.975ZM17.1535 26.4125H18.2893C18.2262 26.535 18.1 26.6575 18.0369 26.78C17.8476 27.025 17.7214 27.025 17.7214 27.025C17.7214 27.025 17.469 26.9638 17.1535 26.4125ZM29.3319 26.78C29.2688 26.6575 29.1427 26.535 29.0795 26.4125H30.2153C29.8999 26.9638 29.6475 27.025 29.6475 27.025C29.6475 27.025 29.5213 27.025 29.3319 26.78ZM30.2153 5.5875C29.8999 5.03625 29.6475 4.975 29.6475 4.975C29.6475 4.975 29.5213 4.975 29.3319 5.22C29.2688 5.3425 29.1427 5.465 29.0795 5.5875H30.2153Z" fill="url(#paint1_linear_109_11849)"/>
<path d="M34.6326 21.4513V17.47H37.5351V18.3888H35.8315V19.0013H37.409V19.8588H35.8315V20.4713H37.5351V21.39H34.6326V21.4513Z" fill="black"/>
<path d="M30.3416 21.4513V17.47H31.3511L32.8024 19.4912V17.47H34.0013V21.4513H32.9918L31.5405 19.3688V21.4513H30.3416Z" fill="black"/>
<path d="M27.8807 21.5125C26.808 21.5125 26.0508 20.9613 26.0508 20.0425V17.47H27.2497V19.92C27.2497 20.3488 27.4389 20.5938 27.8807 20.5938C28.2593 20.5938 28.5116 20.3488 28.5116 19.92V17.47H29.7106V20.0425C29.7106 20.9 29.0165 21.5125 27.8807 21.5125Z" fill="black"/>
<path d="M23.3373 21.4513V18.3888H22.2646V17.47H25.6089V18.3888H24.5363V21.4513H23.3373Z" fill="black"/>
<path d="M18.4155 21.4513V17.47H20.2455C21.3182 17.47 21.8861 17.96 21.8861 18.8175C21.8861 19.3075 21.6336 19.7363 21.2551 19.92L22.0122 21.39H20.6872L20.0562 20.1037H19.6775V21.39H18.4155V21.4513ZM19.6144 19.3075H20.1193C20.4348 19.3075 20.6872 19.1238 20.6872 18.8175C20.6872 18.5113 20.4348 18.3275 20.1193 18.3275H19.6144V19.3075Z" fill="black"/>
<path d="M15.7654 21.5125C14.5034 21.5125 13.6831 20.7162 13.6831 19.43C13.6831 18.1437 14.5034 17.3475 15.7654 17.3475C17.0275 17.3475 17.8478 18.1437 17.8478 19.43C17.8478 20.7162 17.0906 21.5125 15.7654 21.5125ZM15.7654 20.5325C16.2702 20.5325 16.5857 20.1037 16.5857 19.43C16.5857 18.7562 16.2702 18.3275 15.7654 18.3275C15.2606 18.3275 14.9451 18.7562 14.9451 19.43C14.9451 20.165 15.2606 20.5325 15.7654 20.5325Z" fill="black"/>
<path d="M10.4648 21.4513V17.47H13.3675V18.3888H11.6638V19.185H13.1782V20.0425H11.6638V21.4513H10.4648Z" fill="black"/>
<path d="M32.6765 14.53V10.5488H35.5791V11.4675H33.8754V12.2638H35.3899V13.1213H33.8754V14.53H32.6765Z" fill="black"/>
<path d="M30.0893 14.5913C28.8274 14.5913 28.0071 13.795 28.0071 12.5088C28.0071 11.2225 28.8274 10.4263 30.0893 10.4263C31.3514 10.4263 32.1717 11.2225 32.1717 12.5088C32.1717 13.795 31.3514 14.5913 30.0893 14.5913ZM30.0893 13.6725C30.5942 13.6725 30.9097 13.2438 30.9097 12.57C30.9097 11.8963 30.5942 11.4675 30.0893 11.4675C29.5846 11.4675 29.269 11.8963 29.269 12.57C29.269 13.2438 29.5846 13.6725 30.0893 13.6725Z" fill="black"/>
<path d="M23.5898 14.53V10.5488H24.7888V13.6113H26.3663V14.53H23.5898Z" fill="black"/>
<path d="M20.1194 14.53V10.5488H23.0221V11.4675H21.3183V12.08H22.8958V12.9375H21.3183V13.55H23.0221V14.4688H20.1194V14.53Z" fill="black"/>
<path d="M16.5857 14.53V10.5488H19.4883V11.4675H17.7846V12.08H19.3621V12.9375H17.7846V13.55H19.4883V14.4688H16.5857V14.53Z" fill="black"/>
<path d="M12.5474 14.53V10.5488H14.3773C15.45 10.5488 16.0179 11.0388 16.0179 11.8963C16.0179 12.3863 15.7655 12.815 15.3869 12.9988L16.1441 14.53H14.819L14.188 13.2438H13.7463V14.53H12.5474ZM13.7463 12.3863H14.2511C14.5666 12.3863 14.819 12.2025 14.819 11.8963C14.819 11.59 14.5666 11.4063 14.2511 11.4063H13.7463V12.3863Z" fill="black"/>
</g>
</g>
<defs>
<linearGradient id="paint0_linear_109_11849" x1="36.1418" y1="-3.59536e-07" x2="16.3595" y2="39.4585" gradientUnits="userSpaceOnUse">
<stop stop-color="#FAFAFA"/>
<stop offset="1" stop-color="#EBEBEB"/>
</linearGradient>
<linearGradient id="paint1_linear_109_11849" x1="23.6932" y1="3.75" x2="23.6932" y2="28.25" gradientUnits="userSpaceOnUse">
<stop stop-color="#1DC594"/>
<stop offset="0.1018" stop-color="#2588F6"/>
<stop offset="0.2009" stop-color="#770DA2"/>
<stop offset="0.801" stop-color="#E61222"/>
<stop offset="0.9001" stop-color="#F95616"/>
<stop offset="1" stop-color="#F1AD2F"/>
</linearGradient>
<clipPath id="clip0_109_11849">
<rect width="48" height="38" fill="white" transform="matrix(-1 -8.74228e-08 -8.74228e-08 1 48 0)"/>
</clipPath>
<clipPath id="clip1_109_11849">
<rect width="48" height="38" fill="white" transform="matrix(-1 -8.74228e-08 -8.74228e-08 1 48 0)"/>
</clipPath>
</defs>
</svg>
